M48
METRIC,TZ
T01C1.0160
T02C1.5240
T03C0.8130
T04C0.7620
%
T01
X+29000Y+67780
X+29000Y+65240
X+29000Y+62700
X+29000Y+60160
X+29000Y+57620
X+29000Y+55080
X+29000Y+52540
X+29000Y+50000
X+29000Y+44920
X+29000Y+42380
X+29000Y+39840
X+29000Y+37300
X+29000Y+34760
X+29000Y+32220
X+77260Y+32220
X+77260Y+34760
X+77260Y+37300
X+77260Y+39840
X+77260Y+42380
X+77260Y+44920
X+77260Y+47460
X+77260Y+50000
X+77260Y+53810
X+77260Y+56350
X+77260Y+58890
X+77260Y+61430
X+77260Y+63970
X+77260Y+66510
X+77260Y+69050
X+77260Y+71590
X+77260Y+74130
X+77260Y+76670
X+95000Y+68920
X+95000Y+71460
X+95000Y+74000
X+95000Y+60540
X+95000Y+58000
X+94000Y+48540
X+94000Y+46000
X+83030Y+64000
X+83030Y+66540
X+21000Y+21000
X+23540Y+21000
X+26080Y+21000
X+93000Y+25620
X+93000Y+23080
X+93000Y+20540
X+93000Y+18000
X+93000Y+15460
T02
X+17000Y+75920
X+17000Y+81000
X+17000Y+61000
X+17000Y+66080
T03
X+74000Y+18000
X+72000Y+18000
X+70000Y+18000
X+68000Y+18000
X+66000Y+18000
X+64000Y+18000
X+62000Y+18000
X+60000Y+18000
X+58000Y+18000
X+56000Y+18000
X+54000Y+18000
X+52000Y+18000
X+50000Y+18000
X+48000Y+18000
X+46000Y+18000
T04
X+49160Y+52000
X+39000Y+52000
X+37000Y+36160
X+37000Y+26000
X+42000Y+36160
X+42000Y+26000
X+49160Y+64000
X+39000Y+64000
X+39000Y+58000
X+49160Y+58000
X+39000Y+46000
X+49160Y+46000
M30
